<mxfile host="app.diagrams.net" agent="Mozilla/5.0 (Macintosh; Intel Mac OS X 10_15_7) AppleWebKit/537.36 (KHTML, like Gecko) Chrome/134.0.0.0 Safari/537.36" version="26.2.9">
  <diagram name="ページ1" id="f9i55axrDPyPSsfysElH">
    <mxGraphModel dx="1428" dy="766" grid="1" gridSize="10" guides="1" tooltips="1" connect="1" arrows="1" fold="1" page="1" pageScale="1" pageWidth="827" pageHeight="1169" math="0" shadow="0">
      <root>
        <mxCell id="0" />
        <mxCell id="1" parent="0" />
        <mxCell id="8GICH7gbpfCh5VjfwW4x-2" style="edgeStyle=orthogonalEdgeStyle;rounded=0;orthogonalLoop=1;jettySize=auto;html=1;exitX=0.5;exitY=1;exitDx=0;exitDy=0;" edge="1" parent="1">
          <mxGeometry relative="1" as="geometry">
            <mxPoint x="389" y="100" as="sourcePoint" />
            <mxPoint x="389" y="100" as="targetPoint" />
          </mxGeometry>
        </mxCell>
        <mxCell id="8GICH7gbpfCh5VjfwW4x-16" value="" style="edgeStyle=orthogonalEdgeStyle;rounded=0;orthogonalLoop=1;jettySize=auto;html=1;" edge="1" parent="1" source="8GICH7gbpfCh5VjfwW4x-5" target="8GICH7gbpfCh5VjfwW4x-13">
          <mxGeometry relative="1" as="geometry" />
        </mxCell>
        <mxCell id="8GICH7gbpfCh5VjfwW4x-5" value="Start" style="rounded=1;whiteSpace=wrap;html=1;" vertex="1" parent="1">
          <mxGeometry x="329" y="40" width="160" height="40" as="geometry" />
        </mxCell>
        <mxCell id="8GICH7gbpfCh5VjfwW4x-9" style="edgeStyle=orthogonalEdgeStyle;rounded=0;orthogonalLoop=1;jettySize=auto;html=1;exitX=0.5;exitY=1;exitDx=0;exitDy=0;" edge="1" parent="1">
          <mxGeometry relative="1" as="geometry">
            <mxPoint x="389" y="200" as="sourcePoint" />
            <mxPoint x="389" y="200" as="targetPoint" />
          </mxGeometry>
        </mxCell>
        <mxCell id="8GICH7gbpfCh5VjfwW4x-17" value="" style="edgeStyle=orthogonalEdgeStyle;rounded=0;orthogonalLoop=1;jettySize=auto;html=1;" edge="1" parent="1" source="8GICH7gbpfCh5VjfwW4x-13" target="8GICH7gbpfCh5VjfwW4x-15">
          <mxGeometry relative="1" as="geometry" />
        </mxCell>
        <mxCell id="8GICH7gbpfCh5VjfwW4x-13" value="ランダムな単語を生成する" style="rounded=1;whiteSpace=wrap;html=1;" vertex="1" parent="1">
          <mxGeometry x="329" y="120" width="160" height="40" as="geometry" />
        </mxCell>
        <mxCell id="8GICH7gbpfCh5VjfwW4x-19" value="" style="edgeStyle=orthogonalEdgeStyle;rounded=0;orthogonalLoop=1;jettySize=auto;html=1;" edge="1" parent="1" source="8GICH7gbpfCh5VjfwW4x-15" target="8GICH7gbpfCh5VjfwW4x-18">
          <mxGeometry relative="1" as="geometry" />
        </mxCell>
        <mxCell id="8GICH7gbpfCh5VjfwW4x-15" value="単語の文字数と同じ数の空白を生成する" style="rounded=1;whiteSpace=wrap;html=1;" vertex="1" parent="1">
          <mxGeometry x="329" y="200" width="160" height="40" as="geometry" />
        </mxCell>
        <mxCell id="8GICH7gbpfCh5VjfwW4x-22" value="" style="edgeStyle=orthogonalEdgeStyle;rounded=0;orthogonalLoop=1;jettySize=auto;html=1;" edge="1" parent="1" source="8GICH7gbpfCh5VjfwW4x-18" target="8GICH7gbpfCh5VjfwW4x-21">
          <mxGeometry relative="1" as="geometry" />
        </mxCell>
        <mxCell id="8GICH7gbpfCh5VjfwW4x-18" value="ユーザーに単語を推測してもらう" style="whiteSpace=wrap;html=1;rounded=1;" vertex="1" parent="1">
          <mxGeometry x="329" y="280" width="160" height="40" as="geometry" />
        </mxCell>
        <mxCell id="8GICH7gbpfCh5VjfwW4x-24" value="" style="edgeStyle=orthogonalEdgeStyle;rounded=0;orthogonalLoop=1;jettySize=auto;html=1;" edge="1" parent="1" source="8GICH7gbpfCh5VjfwW4x-21">
          <mxGeometry relative="1" as="geometry">
            <mxPoint x="569" y="520" as="targetPoint" />
          </mxGeometry>
        </mxCell>
        <mxCell id="8GICH7gbpfCh5VjfwW4x-21" value="推測し単語に該当する&lt;div&gt;文字はありますか？&lt;/div&gt;" style="rhombus;whiteSpace=wrap;html=1;rounded=1;" vertex="1" parent="1">
          <mxGeometry x="329" y="340" width="160" height="100" as="geometry" />
        </mxCell>
        <mxCell id="8GICH7gbpfCh5VjfwW4x-25" value="" style="edgeStyle=orthogonalEdgeStyle;rounded=0;orthogonalLoop=1;jettySize=auto;html=1;exitX=0;exitY=0.5;exitDx=0;exitDy=0;" edge="1" parent="1" source="8GICH7gbpfCh5VjfwW4x-21">
          <mxGeometry relative="1" as="geometry">
            <mxPoint x="319" y="390" as="sourcePoint" />
            <mxPoint x="248.5" y="520" as="targetPoint" />
          </mxGeometry>
        </mxCell>
        <mxCell id="8GICH7gbpfCh5VjfwW4x-27" value="Yes" style="text;html=1;align=center;verticalAlign=middle;whiteSpace=wrap;rounded=0;" vertex="1" parent="1">
          <mxGeometry x="179" y="430" width="60" height="30" as="geometry" />
        </mxCell>
        <mxCell id="8GICH7gbpfCh5VjfwW4x-28" value="No" style="text;html=1;align=center;verticalAlign=middle;whiteSpace=wrap;rounded=0;" vertex="1" parent="1">
          <mxGeometry x="583" y="430" width="60" height="30" as="geometry" />
        </mxCell>
        <mxCell id="8GICH7gbpfCh5VjfwW4x-32" value="" style="edgeStyle=orthogonalEdgeStyle;rounded=0;orthogonalLoop=1;jettySize=auto;html=1;" edge="1" parent="1" source="8GICH7gbpfCh5VjfwW4x-29" target="8GICH7gbpfCh5VjfwW4x-31">
          <mxGeometry relative="1" as="geometry" />
        </mxCell>
        <mxCell id="8GICH7gbpfCh5VjfwW4x-29" value="空欄を文字で置き換える" style="rounded=1;whiteSpace=wrap;html=1;" vertex="1" parent="1">
          <mxGeometry x="169" y="525" width="160" height="35" as="geometry" />
        </mxCell>
        <mxCell id="8GICH7gbpfCh5VjfwW4x-34" value="" style="edgeStyle=orthogonalEdgeStyle;rounded=0;orthogonalLoop=1;jettySize=auto;html=1;" edge="1" parent="1" source="8GICH7gbpfCh5VjfwW4x-30" target="8GICH7gbpfCh5VjfwW4x-33">
          <mxGeometry relative="1" as="geometry" />
        </mxCell>
        <mxCell id="8GICH7gbpfCh5VjfwW4x-30" value="命を失う" style="rounded=1;whiteSpace=wrap;html=1;" vertex="1" parent="1">
          <mxGeometry x="489" y="520" width="160" height="35" as="geometry" />
        </mxCell>
        <mxCell id="8GICH7gbpfCh5VjfwW4x-31" value="&lt;div&gt;全ての空欄が埋まり&lt;/div&gt;&lt;div&gt;ましたか？？&lt;/div&gt;" style="rhombus;whiteSpace=wrap;html=1;rounded=1;" vertex="1" parent="1">
          <mxGeometry x="169" y="612.5" width="160" height="67.5" as="geometry" />
        </mxCell>
        <mxCell id="8GICH7gbpfCh5VjfwW4x-33" value="命が尽きてしまい&lt;div&gt;ましたか？&lt;/div&gt;" style="rhombus;whiteSpace=wrap;html=1;rounded=1;" vertex="1" parent="1">
          <mxGeometry x="489" y="612.5" width="160" height="67.5" as="geometry" />
        </mxCell>
        <mxCell id="8GICH7gbpfCh5VjfwW4x-36" value="" style="endArrow=none;html=1;rounded=0;exitX=1;exitY=0.5;exitDx=0;exitDy=0;" edge="1" parent="1" source="8GICH7gbpfCh5VjfwW4x-33">
          <mxGeometry width="50" height="50" relative="1" as="geometry">
            <mxPoint x="649" y="590" as="sourcePoint" />
            <mxPoint x="679" y="300" as="targetPoint" />
            <Array as="points">
              <mxPoint x="679" y="646" />
              <mxPoint x="679" y="470" />
            </Array>
          </mxGeometry>
        </mxCell>
        <mxCell id="8GICH7gbpfCh5VjfwW4x-37" value="" style="endArrow=classic;html=1;rounded=0;" edge="1" parent="1">
          <mxGeometry width="50" height="50" relative="1" as="geometry">
            <mxPoint x="679" y="300" as="sourcePoint" />
            <mxPoint x="499" y="300" as="targetPoint" />
          </mxGeometry>
        </mxCell>
        <mxCell id="8GICH7gbpfCh5VjfwW4x-38" value="No" style="text;html=1;align=center;verticalAlign=middle;whiteSpace=wrap;rounded=0;" vertex="1" parent="1">
          <mxGeometry x="639" y="650" width="60" height="30" as="geometry" />
        </mxCell>
        <mxCell id="8GICH7gbpfCh5VjfwW4x-39" value="" style="endArrow=none;html=1;rounded=0;" edge="1" parent="1">
          <mxGeometry width="50" height="50" relative="1" as="geometry">
            <mxPoint x="169" y="650" as="sourcePoint" />
            <mxPoint x="129" y="300" as="targetPoint" />
            <Array as="points">
              <mxPoint x="129" y="650" />
              <mxPoint x="129" y="474" />
            </Array>
          </mxGeometry>
        </mxCell>
        <mxCell id="8GICH7gbpfCh5VjfwW4x-40" value="" style="endArrow=classic;html=1;rounded=0;" edge="1" parent="1">
          <mxGeometry width="50" height="50" relative="1" as="geometry">
            <mxPoint x="129" y="300" as="sourcePoint" />
            <mxPoint x="319" y="300" as="targetPoint" />
          </mxGeometry>
        </mxCell>
        <mxCell id="8GICH7gbpfCh5VjfwW4x-41" value="No" style="text;html=1;align=center;verticalAlign=middle;whiteSpace=wrap;rounded=0;" vertex="1" parent="1">
          <mxGeometry x="129" y="650" width="60" height="30" as="geometry" />
        </mxCell>
        <mxCell id="8GICH7gbpfCh5VjfwW4x-42" value="GAME OVER" style="rounded=1;whiteSpace=wrap;html=1;" vertex="1" parent="1">
          <mxGeometry x="329" y="770" width="160" height="40" as="geometry" />
        </mxCell>
        <mxCell id="8GICH7gbpfCh5VjfwW4x-49" value="" style="endArrow=none;html=1;rounded=0;entryX=0.5;entryY=1;entryDx=0;entryDy=0;" edge="1" parent="1" target="8GICH7gbpfCh5VjfwW4x-31">
          <mxGeometry width="50" height="50" relative="1" as="geometry">
            <mxPoint x="249" y="720" as="sourcePoint" />
            <mxPoint x="249" y="700" as="targetPoint" />
          </mxGeometry>
        </mxCell>
        <mxCell id="8GICH7gbpfCh5VjfwW4x-50" value="" style="endArrow=none;html=1;rounded=0;" edge="1" parent="1">
          <mxGeometry width="50" height="50" relative="1" as="geometry">
            <mxPoint x="569" y="720" as="sourcePoint" />
            <mxPoint x="249" y="720" as="targetPoint" />
          </mxGeometry>
        </mxCell>
        <mxCell id="8GICH7gbpfCh5VjfwW4x-51" value="" style="endArrow=none;html=1;rounded=0;entryX=0.5;entryY=1;entryDx=0;entryDy=0;" edge="1" parent="1" target="8GICH7gbpfCh5VjfwW4x-33">
          <mxGeometry width="50" height="50" relative="1" as="geometry">
            <mxPoint x="569" y="720" as="sourcePoint" />
            <mxPoint x="569" y="690" as="targetPoint" />
          </mxGeometry>
        </mxCell>
        <mxCell id="8GICH7gbpfCh5VjfwW4x-52" value="" style="endArrow=classic;html=1;rounded=0;entryX=0.5;entryY=0;entryDx=0;entryDy=0;" edge="1" parent="1" target="8GICH7gbpfCh5VjfwW4x-42">
          <mxGeometry width="50" height="50" relative="1" as="geometry">
            <mxPoint x="409" y="720" as="sourcePoint" />
            <mxPoint x="419" y="710" as="targetPoint" />
          </mxGeometry>
        </mxCell>
        <mxCell id="8GICH7gbpfCh5VjfwW4x-53" value="Yes" style="text;html=1;align=center;verticalAlign=middle;whiteSpace=wrap;rounded=0;" vertex="1" parent="1">
          <mxGeometry x="499" y="680" width="60" height="30" as="geometry" />
        </mxCell>
        <mxCell id="8GICH7gbpfCh5VjfwW4x-54" value="Yes" style="text;html=1;align=center;verticalAlign=middle;whiteSpace=wrap;rounded=0;" vertex="1" parent="1">
          <mxGeometry x="259" y="680" width="60" height="30" as="geometry" />
        </mxCell>
      </root>
    </mxGraphModel>
  </diagram>
</mxfile>
